<mxfile host="app.diagrams.net" agent="Mozilla/5.0 (Windows NT 10.0; Win64; x64) AppleWebKit/537.36 (KHTML, like Gecko) Chrome/131.0.0.0 Safari/537.36" version="25.0.1">
  <diagram id="C5RBs43oDa-KdzZeNtuy" name="Page-1">
    <mxGraphModel dx="794" dy="426" grid="1" gridSize="10" guides="1" tooltips="1" connect="1" arrows="1" fold="1" page="1" pageScale="1" pageWidth="827" pageHeight="1169" math="0" shadow="0">
      <root>
        <mxCell id="WIyWlLk6GJQsqaUBKTNV-0" />
        <mxCell id="WIyWlLk6GJQsqaUBKTNV-1" parent="WIyWlLk6GJQsqaUBKTNV-0" />
        <mxCell id="8aoIxuO5mH17G2brgipZ-71" value="" style="rounded=0;html=1;jettySize=auto;orthogonalLoop=1;fontSize=11;endArrow=block;endFill=0;endSize=8;strokeWidth=1;shadow=0;labelBackgroundColor=none;edgeStyle=orthogonalEdgeStyle;" edge="1" parent="WIyWlLk6GJQsqaUBKTNV-1" source="8aoIxuO5mH17G2brgipZ-72" target="8aoIxuO5mH17G2brgipZ-75">
          <mxGeometry relative="1" as="geometry" />
        </mxCell>
        <mxCell id="8aoIxuO5mH17G2brgipZ-72" value="Welcome to Treasure Island. &lt;br&gt;Your mission is to find the treasure." style="rounded=1;whiteSpace=wrap;html=1;fontSize=12;glass=0;strokeWidth=1;shadow=0;" vertex="1" parent="WIyWlLk6GJQsqaUBKTNV-1">
          <mxGeometry x="300" y="260" width="200" height="40" as="geometry" />
        </mxCell>
        <mxCell id="8aoIxuO5mH17G2brgipZ-73" value="Left" style="rounded=0;html=1;jettySize=auto;orthogonalLoop=1;fontSize=11;endArrow=block;endFill=0;endSize=8;strokeWidth=1;shadow=0;labelBackgroundColor=none;edgeStyle=orthogonalEdgeStyle;" edge="1" parent="WIyWlLk6GJQsqaUBKTNV-1" source="8aoIxuO5mH17G2brgipZ-75" target="8aoIxuO5mH17G2brgipZ-79">
          <mxGeometry y="20" relative="1" as="geometry">
            <mxPoint as="offset" />
          </mxGeometry>
        </mxCell>
        <mxCell id="8aoIxuO5mH17G2brgipZ-74" value="Right or &lt;br&gt;anything else" style="edgeStyle=orthogonalEdgeStyle;rounded=0;html=1;jettySize=auto;orthogonalLoop=1;fontSize=11;endArrow=block;endFill=0;endSize=8;strokeWidth=1;shadow=0;labelBackgroundColor=none;" edge="1" parent="WIyWlLk6GJQsqaUBKTNV-1" source="8aoIxuO5mH17G2brgipZ-75" target="8aoIxuO5mH17G2brgipZ-76">
          <mxGeometry x="0.0533" y="20" relative="1" as="geometry">
            <mxPoint as="offset" />
          </mxGeometry>
        </mxCell>
        <mxCell id="8aoIxuO5mH17G2brgipZ-75" value="left or right?" style="rhombus;whiteSpace=wrap;html=1;shadow=0;fontFamily=Helvetica;fontSize=12;align=center;strokeWidth=1;spacing=6;spacingTop=-4;" vertex="1" parent="WIyWlLk6GJQsqaUBKTNV-1">
          <mxGeometry x="342.5" y="345" width="115" height="70" as="geometry" />
        </mxCell>
        <mxCell id="8aoIxuO5mH17G2brgipZ-76" value="Fall into a hole.&lt;br&gt;Game Over." style="rounded=1;whiteSpace=wrap;html=1;fontSize=12;glass=0;strokeWidth=1;shadow=0;" vertex="1" parent="WIyWlLk6GJQsqaUBKTNV-1">
          <mxGeometry x="542" y="360" width="120" height="40" as="geometry" />
        </mxCell>
        <mxCell id="8aoIxuO5mH17G2brgipZ-77" value="Wait" style="rounded=0;html=1;jettySize=auto;orthogonalLoop=1;fontSize=11;endArrow=block;endFill=0;endSize=8;strokeWidth=1;shadow=0;labelBackgroundColor=none;edgeStyle=orthogonalEdgeStyle;" edge="1" parent="WIyWlLk6GJQsqaUBKTNV-1" source="8aoIxuO5mH17G2brgipZ-79">
          <mxGeometry x="0.3333" y="20" relative="1" as="geometry">
            <mxPoint as="offset" />
            <mxPoint x="400" y="610" as="targetPoint" />
          </mxGeometry>
        </mxCell>
        <mxCell id="8aoIxuO5mH17G2brgipZ-78" value="Swim or &lt;br&gt;anything else" style="edgeStyle=orthogonalEdgeStyle;rounded=0;html=1;jettySize=auto;orthogonalLoop=1;fontSize=11;endArrow=block;endFill=0;endSize=8;strokeWidth=1;shadow=0;labelBackgroundColor=none;" edge="1" parent="WIyWlLk6GJQsqaUBKTNV-1" source="8aoIxuO5mH17G2brgipZ-79" target="8aoIxuO5mH17G2brgipZ-80">
          <mxGeometry x="0.1304" y="20" relative="1" as="geometry">
            <mxPoint as="offset" />
          </mxGeometry>
        </mxCell>
        <mxCell id="8aoIxuO5mH17G2brgipZ-79" value="swim or wait" style="rhombus;whiteSpace=wrap;html=1;shadow=0;fontFamily=Helvetica;fontSize=12;align=center;strokeWidth=1;spacing=6;spacingTop=-4;" vertex="1" parent="WIyWlLk6GJQsqaUBKTNV-1">
          <mxGeometry x="350" y="470" width="100" height="80" as="geometry" />
        </mxCell>
        <mxCell id="8aoIxuO5mH17G2brgipZ-80" value="Attacked by trout.&lt;br&gt;Game Over." style="rounded=1;whiteSpace=wrap;html=1;fontSize=12;glass=0;strokeWidth=1;shadow=0;" vertex="1" parent="WIyWlLk6GJQsqaUBKTNV-1">
          <mxGeometry x="542" y="490" width="120" height="40" as="geometry" />
        </mxCell>
        <mxCell id="8aoIxuO5mH17G2brgipZ-81" style="edgeStyle=orthogonalEdgeStyle;rounded=0;orthogonalLoop=1;jettySize=auto;html=1;" edge="1" parent="WIyWlLk6GJQsqaUBKTNV-1" source="8aoIxuO5mH17G2brgipZ-85" target="8aoIxuO5mH17G2brgipZ-86">
          <mxGeometry relative="1" as="geometry" />
        </mxCell>
        <mxCell id="8aoIxuO5mH17G2brgipZ-82" style="edgeStyle=orthogonalEdgeStyle;rounded=0;orthogonalLoop=1;jettySize=auto;html=1;" edge="1" parent="WIyWlLk6GJQsqaUBKTNV-1" source="8aoIxuO5mH17G2brgipZ-85" target="8aoIxuO5mH17G2brgipZ-88">
          <mxGeometry relative="1" as="geometry" />
        </mxCell>
        <mxCell id="8aoIxuO5mH17G2brgipZ-83" style="edgeStyle=orthogonalEdgeStyle;rounded=0;orthogonalLoop=1;jettySize=auto;html=1;entryX=1;entryY=0.5;entryDx=0;entryDy=0;" edge="1" parent="WIyWlLk6GJQsqaUBKTNV-1" source="8aoIxuO5mH17G2brgipZ-85" target="8aoIxuO5mH17G2brgipZ-87">
          <mxGeometry relative="1" as="geometry" />
        </mxCell>
        <mxCell id="8aoIxuO5mH17G2brgipZ-84" style="edgeStyle=orthogonalEdgeStyle;rounded=0;orthogonalLoop=1;jettySize=auto;html=1;exitX=1;exitY=1;exitDx=0;exitDy=0;" edge="1" parent="WIyWlLk6GJQsqaUBKTNV-1" source="8aoIxuO5mH17G2brgipZ-85" target="8aoIxuO5mH17G2brgipZ-92">
          <mxGeometry relative="1" as="geometry">
            <Array as="points">
              <mxPoint x="428" y="690" />
              <mxPoint x="602" y="690" />
            </Array>
          </mxGeometry>
        </mxCell>
        <mxCell id="8aoIxuO5mH17G2brgipZ-85" value="Which door?" style="rhombus;whiteSpace=wrap;html=1;" vertex="1" parent="WIyWlLk6GJQsqaUBKTNV-1">
          <mxGeometry x="345" y="610" width="110" height="80" as="geometry" />
        </mxCell>
        <mxCell id="8aoIxuO5mH17G2brgipZ-86" value="Eaten by beasts.&lt;br&gt;Game Over." style="rounded=1;whiteSpace=wrap;html=1;fontSize=12;glass=0;strokeWidth=1;shadow=0;" vertex="1" parent="WIyWlLk6GJQsqaUBKTNV-1">
          <mxGeometry x="542" y="630" width="120" height="40" as="geometry" />
        </mxCell>
        <mxCell id="8aoIxuO5mH17G2brgipZ-87" value="Burned by fire.&lt;br&gt;Game Over." style="rounded=1;whiteSpace=wrap;html=1;fontSize=12;glass=0;strokeWidth=1;shadow=0;" vertex="1" parent="WIyWlLk6GJQsqaUBKTNV-1">
          <mxGeometry x="160" y="630" width="120" height="40" as="geometry" />
        </mxCell>
        <mxCell id="8aoIxuO5mH17G2brgipZ-88" value="You Win!" style="rounded=1;whiteSpace=wrap;html=1;fontSize=12;glass=0;strokeWidth=1;shadow=0;" vertex="1" parent="WIyWlLk6GJQsqaUBKTNV-1">
          <mxGeometry x="340" y="744" width="120" height="40" as="geometry" />
        </mxCell>
        <mxCell id="8aoIxuO5mH17G2brgipZ-89" value="Blue" style="text;html=1;align=center;verticalAlign=middle;resizable=0;points=[];autosize=1;" vertex="1" parent="WIyWlLk6GJQsqaUBKTNV-1">
          <mxGeometry x="470" y="630" width="40" height="20" as="geometry" />
        </mxCell>
        <mxCell id="8aoIxuO5mH17G2brgipZ-90" value="Yellow" style="text;html=1;align=center;verticalAlign=middle;resizable=0;points=[];autosize=1;" vertex="1" parent="WIyWlLk6GJQsqaUBKTNV-1">
          <mxGeometry x="406" y="710" width="50" height="20" as="geometry" />
        </mxCell>
        <mxCell id="8aoIxuO5mH17G2brgipZ-91" value="Red" style="text;html=1;align=center;verticalAlign=middle;resizable=0;points=[];autosize=1;" vertex="1" parent="WIyWlLk6GJQsqaUBKTNV-1">
          <mxGeometry x="302.5" y="630" width="40" height="20" as="geometry" />
        </mxCell>
        <mxCell id="8aoIxuO5mH17G2brgipZ-92" value="Game Over." style="rounded=1;whiteSpace=wrap;html=1;fontSize=12;glass=0;strokeWidth=1;shadow=0;" vertex="1" parent="WIyWlLk6GJQsqaUBKTNV-1">
          <mxGeometry x="542" y="744" width="120" height="40" as="geometry" />
        </mxCell>
        <mxCell id="8aoIxuO5mH17G2brgipZ-93" value="Anything else" style="text;html=1;" vertex="1" parent="WIyWlLk6GJQsqaUBKTNV-1">
          <mxGeometry x="456" y="670" width="50" height="30" as="geometry" />
        </mxCell>
      </root>
    </mxGraphModel>
  </diagram>
</mxfile>
